<svg xmlns="http://www.w3.org/2000/svg" viewBox="0 0 48 48" role="img" aria-label="로봄"><g transform="translate(24 24) scale(2.1)"><path d="M0 -1.4 C -4.6 -1.8 -6 -6.2 -3.7 -9.2 C -2.5 -10.7 -1.2 -9.4 0 -7.7 C 1.2 -9.4 2.5 -10.7 3.7 -9.2 C 6 -6.2 4.6 -1.8 0 -1.4 Z" fill="#f35f46" transform="rotate(-2)"/><path d="M0 -1.4 C -4.6 -1.8 -6 -6.2 -3.7 -9.2 C -2.5 -10.7 -1.2 -9.4 0 -7.7 C 1.2 -9.4 2.5 -10.7 3.7 -9.2 C 6 -6.2 4.6 -1.8 0 -1.4 Z" fill="#f35f46" transform="rotate(74)"/><path d="M0 -1.4 C -4.6 -1.8 -6 -6.2 -3.7 -9.2 C -2.5 -10.7 -1.2 -9.4 0 -7.7 C 1.2 -9.4 2.5 -10.7 3.7 -9.2 C 6 -6.2 4.6 -1.8 0 -1.4 Z" fill="#f35f46" transform="rotate(142)"/><path d="M0 -1.4 C -4.6 -1.8 -6 -6.2 -3.7 -9.2 C -2.5 -10.7 -1.2 -9.4 0 -7.7 C 1.2 -9.4 2.5 -10.7 3.7 -9.2 C 6 -6.2 4.6 -1.8 0 -1.4 Z" fill="#f35f46" transform="rotate(218)"/><path d="M0 -1.4 C -4.6 -1.8 -6 -6.2 -3.7 -9.2 C -2.5 -10.7 -1.2 -9.4 0 -7.7 C 1.2 -9.4 2.5 -10.7 3.7 -9.2 C 6 -6.2 4.6 -1.8 0 -1.4 Z" fill="#f35f46" transform="rotate(286)"/><circle r="2.4" fill="#fffefb"/><circle r="1.2" fill="#f35f46" opacity="0.5"/></g></svg>
